<?xml version="1.0" encoding="utf-8" standalone="no"?>
<!DOCTYPE svg PUBLIC "-//W3C//DTD SVG 1.1//EN"
  "http://www.w3.org/Graphics/SVG/1.1/DTD/svg11.dtd">
<svg xmlns:xlink="http://www.w3.org/1999/xlink" width="460.8pt" height="345.6pt" viewBox="0 0 460.8 345.6" xmlns="http://www.w3.org/2000/svg" version="1.1">
 <metadata>
  <rdf:RDF xmlns:dc="http://purl.org/dc/elements/1.1/" xmlns:cc="http://creativecommons.org/ns#" xmlns:rdf="http://www.w3.org/1999/02/22-rdf-syntax-ns#">
   <cc:Work>
    <dc:type rdf:resource="http://purl.org/dc/dcmitype/StillImage"/>
    <dc:date>2024-01-31T19:11:35.117639</dc:date>
    <dc:format>image/svg+xml</dc:format>
    <dc:creator>
     <cc:Agent>
      <dc:title>Matplotlib v3.7.3, https://matplotlib.org/</dc:title>
     </cc:Agent>
    </dc:creator>
   </cc:Work>
  </rdf:RDF>
 </metadata>
 <defs>
  <style type="text/css">*{stroke-linejoin: round; stroke-linecap: butt}</style>
 </defs>
 <g id="figure_1">
  <g id="patch_1">
   <path d="M 0 345.6 
L 460.8 345.6 
L 460.8 0 
L 0 0 
z
" style="fill: #ffffff"/>
  </g>
  <g id="axes_1">
   <g id="patch_2">
    <path d="M 72.56 306.52 
L 337.864 306.52 
L 337.864 10.8 
L 72.56 10.8 
z
" style="fill: #ffffff"/>
   </g>
   <g id="patch_3">
    <path d="M 72.56 300.359167 
L 113.649393 300.359167 
L 113.649393 288.0375 
L 72.56 288.0375 
z
" clip-path="url(#pfb188b5750)" style="fill: #440154"/>
   </g>
   <g id="patch_4">
    <path d="M 72.56 275.715833 
L 110.933448 275.715833 
L 110.933448 263.394167 
L 72.56 263.394167 
z
" clip-path="url(#pfb188b5750)" style="fill: #440154"/>
   </g>
   <g id="patch_5">
    <path d="M 72.56 251.0725 
L 91.422848 251.0725 
L 91.422848 238.750833 
L 72.56 238.750833 
z
" clip-path="url(#pfb188b5750)" style="fill: #440154"/>
   </g>
   <g id="patch_6">
    <path d="M 72.56 226.429167 
L 174.785977 226.429167 
L 174.785977 214.1075 
L 72.56 214.1075 
z
" clip-path="url(#pfb188b5750)" style="fill: #440154"/>
   </g>
   <g id="patch_7">
    <path d="M 72.56 201.785833 
L 126.334993 201.785833 
L 126.334993 189.464167 
L 72.56 189.464167 
z
" clip-path="url(#pfb188b5750)" style="fill: #440154"/>
   </g>
   <g id="patch_8">
    <path d="M 72.56 177.1425 
L 76.375218 177.1425 
L 76.375218 164.820833 
L 72.56 164.820833 
z
" clip-path="url(#pfb188b5750)" style="fill: #440154"/>
   </g>
   <g id="patch_9">
    <path d="M 72.56 152.499167 
L 72.56 152.499167 
L 72.56 140.1775 
L 72.56 140.1775 
z
" clip-path="url(#pfb188b5750)" style="fill: #440154"/>
   </g>
   <g id="patch_10">
    <path d="M 72.56 127.855833 
L 72.56 127.855833 
L 72.56 115.534167 
L 72.56 115.534167 
z
" clip-path="url(#pfb188b5750)" style="fill: #440154"/>
   </g>
   <g id="patch_11">
    <path d="M 72.56 103.2125 
L 116.963538 103.2125 
L 116.963538 90.890833 
L 72.56 90.890833 
z
" clip-path="url(#pfb188b5750)" style="fill: #440154"/>
   </g>
   <g id="patch_12">
    <path d="M 72.56 78.569167 
L 72.56 78.569167 
L 72.56 66.2475 
L 72.56 66.2475 
z
" clip-path="url(#pfb188b5750)" style="fill: #440154"/>
   </g>
   <g id="patch_13">
    <path d="M 72.56 53.925833 
L 86.802139 53.925833 
L 86.802139 41.604167 
L 72.56 41.604167 
z
" clip-path="url(#pfb188b5750)" style="fill: #440154"/>
   </g>
   <g id="patch_14">
    <path d="M 72.56 29.2825 
L 99.80125 29.2825 
L 99.80125 16.960833 
L 72.56 16.960833 
z
" clip-path="url(#pfb188b5750)" style="fill: #440154"/>
   </g>
   <g id="patch_15">
    <path d="M 72.56 300.359167 
L 72.56 300.359167 
L 72.56 288.0375 
L 72.56 288.0375 
z
" clip-path="url(#pfb188b5750)" style="fill: #482878"/>
   </g>
   <g id="patch_16">
    <path d="M 110.933448 275.715833 
L 130.991797 275.715833 
L 130.991797 263.394167 
L 110.933448 263.394167 
z
" clip-path="url(#pfb188b5750)" style="fill: #482878"/>
   </g>
   <g id="patch_17">
    <path d="M 91.422848 251.0725 
L 118.011556 251.0725 
L 118.011556 238.750833 
L 91.422848 238.750833 
z
" clip-path="url(#pfb188b5750)" style="fill: #482878"/>
   </g>
   <g id="patch_18">
    <path d="M 174.785977 226.429167 
L 230.865368 226.429167 
L 230.865368 214.1075 
L 174.785977 214.1075 
z
" clip-path="url(#pfb188b5750)" style="fill: #482878"/>
   </g>
   <g id="patch_19">
    <path d="M 126.334993 201.785833 
L 206.164201 201.785833 
L 206.164201 189.464167 
L 126.334993 189.464167 
z
" clip-path="url(#pfb188b5750)" style="fill: #482878"/>
   </g>
   <g id="patch_20">
    <path d="M 76.375218 177.1425 
L 101.706603 177.1425 
L 101.706603 164.820833 
L 76.375218 164.820833 
z
" clip-path="url(#pfb188b5750)" style="fill: #482878"/>
   </g>
   <g id="patch_21">
    <path d="M 72.56 152.499167 
L 142.479381 152.499167 
L 142.479381 140.1775 
L 72.56 140.1775 
z
" clip-path="url(#pfb188b5750)" style="fill: #482878"/>
   </g>
   <g id="patch_22">
    <path d="M 72.56 127.855833 
L 72.56 127.855833 
L 72.56 115.534167 
L 72.56 115.534167 
z
" clip-path="url(#pfb188b5750)" style="fill: #482878"/>
   </g>
   <g id="patch_23">
    <path d="M 72.56 103.2125 
L 72.56 103.2125 
L 72.56 90.890833 
L 72.56 90.890833 
z
" clip-path="url(#pfb188b5750)" style="fill: #482878"/>
   </g>
   <g id="patch_24">
    <path d="M 72.56 78.569167 
L 159.699754 78.569167 
L 159.699754 66.2475 
L 72.56 66.2475 
z
" clip-path="url(#pfb188b5750)" style="fill: #482878"/>
   </g>
   <g id="patch_25">
    <path d="M 86.802139 53.925833 
L 111.95226 53.925833 
L 111.95226 41.604167 
L 86.802139 41.604167 
z
" clip-path="url(#pfb188b5750)" style="fill: #482878"/>
   </g>
   <g id="patch_26">
    <path d="M 72.56 29.2825 
L 72.56 29.2825 
L 72.56 16.960833 
L 72.56 16.960833 
z
" clip-path="url(#pfb188b5750)" style="fill: #482878"/>
   </g>
   <g id="patch_27">
    <path d="M 72.56 300.359167 
L 72.56 300.359167 
L 72.56 288.0375 
L 72.56 288.0375 
z
" clip-path="url(#pfb188b5750)" style="fill: #3e4989"/>
   </g>
   <g id="patch_28">
    <path d="M 72.56 275.715833 
L 72.56 275.715833 
L 72.56 263.394167 
L 72.56 263.394167 
z
" clip-path="url(#pfb188b5750)" style="fill: #3e4989"/>
   </g>
   <g id="patch_29">
    <path d="M 72.56 251.0725 
L 72.56 251.0725 
L 72.56 238.750833 
L 72.56 238.750833 
z
" clip-path="url(#pfb188b5750)" style="fill: #3e4989"/>
   </g>
   <g id="patch_30">
    <path d="M 72.56 226.429167 
L 72.56 226.429167 
L 72.56 214.1075 
L 72.56 214.1075 
z
" clip-path="url(#pfb188b5750)" style="fill: #3e4989"/>
   </g>
   <g id="patch_31">
    <path d="M 72.56 201.785833 
L 72.56 201.785833 
L 72.56 189.464167 
L 72.56 189.464167 
z
" clip-path="url(#pfb188b5750)" style="fill: #3e4989"/>
   </g>
   <g id="patch_32">
    <path d="M 101.706603 177.1425 
L 127.870352 177.1425 
L 127.870352 164.820833 
L 101.706603 164.820833 
z
" clip-path="url(#pfb188b5750)" style="fill: #3e4989"/>
   </g>
   <g id="patch_33">
    <path d="M 72.56 152.499167 
L 72.56 152.499167 
L 72.56 140.1775 
L 72.56 140.1775 
z
" clip-path="url(#pfb188b5750)" style="fill: #3e4989"/>
   </g>
   <g id="patch_34">
    <path d="M 72.56 127.855833 
L 72.56 127.855833 
L 72.56 115.534167 
L 72.56 115.534167 
z
" clip-path="url(#pfb188b5750)" style="fill: #3e4989"/>
   </g>
   <g id="patch_35">
    <path d="M 116.963538 103.2125 
L 158.242878 103.2125 
L 158.242878 90.890833 
L 116.963538 90.890833 
z
" clip-path="url(#pfb188b5750)" style="fill: #3e4989"/>
   </g>
   <g id="patch_36">
    <path d="M 159.699754 78.569167 
L 190.080615 78.569167 
L 190.080615 66.2475 
L 159.699754 66.2475 
z
" clip-path="url(#pfb188b5750)" style="fill: #3e4989"/>
   </g>
   <g id="patch_37">
    <path d="M 111.95226 53.925833 
L 237.656652 53.925833 
L 237.656652 41.604167 
L 111.95226 41.604167 
z
" clip-path="url(#pfb188b5750)" style="fill: #3e4989"/>
   </g>
   <g id="patch_38">
    <path d="M 72.56 29.2825 
L 72.56 29.2825 
L 72.56 16.960833 
L 72.56 16.960833 
z
" clip-path="url(#pfb188b5750)" style="fill: #3e4989"/>
   </g>
   <g id="patch_39">
    <path d="M 113.649393 300.359167 
L 133.386829 300.359167 
L 133.386829 288.0375 
L 113.649393 288.0375 
z
" clip-path="url(#pfb188b5750)" style="fill: #31688e"/>
   </g>
   <g id="patch_40">
    <path d="M 72.56 275.715833 
L 72.56 275.715833 
L 72.56 263.394167 
L 72.56 263.394167 
z
" clip-path="url(#pfb188b5750)" style="fill: #31688e"/>
   </g>
   <g id="patch_41">
    <path d="M 118.011556 251.0725 
L 263.274412 251.0725 
L 263.274412 238.750833 
L 118.011556 238.750833 
z
" clip-path="url(#pfb188b5750)" style="fill: #31688e"/>
   </g>
   <g id="patch_42">
    <path d="M 72.56 226.429167 
L 72.56 226.429167 
L 72.56 214.1075 
L 72.56 214.1075 
z
" clip-path="url(#pfb188b5750)" style="fill: #31688e"/>
   </g>
   <g id="patch_43">
    <path d="M 206.164201 201.785833 
L 213.943632 201.785833 
L 213.943632 189.464167 
L 206.164201 189.464167 
z
" clip-path="url(#pfb188b5750)" style="fill: #31688e"/>
   </g>
   <g id="patch_44">
    <path d="M 72.56 177.1425 
L 72.56 177.1425 
L 72.56 164.820833 
L 72.56 164.820833 
z
" clip-path="url(#pfb188b5750)" style="fill: #31688e"/>
   </g>
   <g id="patch_45">
    <path d="M 142.479381 152.499167 
L 202.660022 152.499167 
L 202.660022 140.1775 
L 142.479381 140.1775 
z
" clip-path="url(#pfb188b5750)" style="fill: #31688e"/>
   </g>
   <g id="patch_46">
    <path d="M 72.56 127.855833 
L 72.56 127.855833 
L 72.56 115.534167 
L 72.56 115.534167 
z
" clip-path="url(#pfb188b5750)" style="fill: #31688e"/>
   </g>
   <g id="patch_47">
    <path d="M 158.242878 103.2125 
L 185.036016 103.2125 
L 185.036016 90.890833 
L 158.242878 90.890833 
z
" clip-path="url(#pfb188b5750)" style="fill: #31688e"/>
   </g>
   <g id="patch_48">
    <path d="M 72.56 78.569167 
L 72.56 78.569167 
L 72.56 66.2475 
L 72.56 66.2475 
z
" clip-path="url(#pfb188b5750)" style="fill: #31688e"/>
   </g>
   <g id="patch_49">
    <path d="M 237.656652 53.925833 
L 252.262827 53.925833 
L 252.262827 41.604167 
L 237.656652 41.604167 
z
" clip-path="url(#pfb188b5750)" style="fill: #31688e"/>
   </g>
   <g id="patch_50">
    <path d="M 99.80125 29.2825 
L 115.172348 29.2825 
L 115.172348 16.960833 
L 99.80125 16.960833 
z
" clip-path="url(#pfb188b5750)" style="fill: #31688e"/>
   </g>
   <g id="patch_51">
    <path d="M 72.56 300.359167 
L 72.56 300.359167 
L 72.56 288.0375 
L 72.56 288.0375 
z
" clip-path="url(#pfb188b5750)" style="fill: #26828e"/>
   </g>
   <g id="patch_52">
    <path d="M 72.56 275.715833 
L 72.56 275.715833 
L 72.56 263.394167 
L 72.56 263.394167 
z
" clip-path="url(#pfb188b5750)" style="fill: #26828e"/>
   </g>
   <g id="patch_53">
    <path d="M 72.56 251.0725 
L 72.56 251.0725 
L 72.56 238.750833 
L 72.56 238.750833 
z
" clip-path="url(#pfb188b5750)" style="fill: #26828e"/>
   </g>
   <g id="patch_54">
    <path d="M 72.56 226.429167 
L 72.56 226.429167 
L 72.56 214.1075 
L 72.56 214.1075 
z
" clip-path="url(#pfb188b5750)" style="fill: #26828e"/>
   </g>
   <g id="patch_55">
    <path d="M 72.56 201.785833 
L 72.56 201.785833 
L 72.56 189.464167 
L 72.56 189.464167 
z
" clip-path="url(#pfb188b5750)" style="fill: #26828e"/>
   </g>
   <g id="patch_56">
    <path d="M 127.870352 177.1425 
L 174.423752 177.1425 
L 174.423752 164.820833 
L 127.870352 164.820833 
z
" clip-path="url(#pfb188b5750)" style="fill: #26828e"/>
   </g>
   <g id="patch_57">
    <path d="M 72.56 152.499167 
L 72.56 152.499167 
L 72.56 140.1775 
L 72.56 140.1775 
z
" clip-path="url(#pfb188b5750)" style="fill: #26828e"/>
   </g>
   <g id="patch_58">
    <path d="M 72.56 127.855833 
L 72.56 127.855833 
L 72.56 115.534167 
L 72.56 115.534167 
z
" clip-path="url(#pfb188b5750)" style="fill: #26828e"/>
   </g>
   <g id="patch_59">
    <path d="M 72.56 103.2125 
L 72.56 103.2125 
L 72.56 90.890833 
L 72.56 90.890833 
z
" clip-path="url(#pfb188b5750)" style="fill: #26828e"/>
   </g>
   <g id="patch_60">
    <path d="M 190.080615 78.569167 
L 291.050854 78.569167 
L 291.050854 66.2475 
L 190.080615 66.2475 
z
" clip-path="url(#pfb188b5750)" style="fill: #26828e"/>
   </g>
   <g id="patch_61">
    <path d="M 252.262827 53.925833 
L 265.94124 53.925833 
L 265.94124 41.604167 
L 252.262827 41.604167 
z
" clip-path="url(#pfb188b5750)" style="fill: #26828e"/>
   </g>
   <g id="patch_62">
    <path d="M 115.172348 29.2825 
L 305.961064 29.2825 
L 305.961064 16.960833 
L 115.172348 16.960833 
z
" clip-path="url(#pfb188b5750)" style="fill: #26828e"/>
   </g>
   <g id="patch_63">
    <path d="M 72.56 300.359167 
L 72.56 300.359167 
L 72.56 288.0375 
L 72.56 288.0375 
z
" clip-path="url(#pfb188b5750)" style="fill: #1f9e89"/>
   </g>
   <g id="patch_64">
    <path d="M 130.991797 275.715833 
L 139.982433 275.715833 
L 139.982433 263.394167 
L 130.991797 263.394167 
z
" clip-path="url(#pfb188b5750)" style="fill: #1f9e89"/>
   </g>
   <g id="patch_65">
    <path d="M 72.56 251.0725 
L 72.56 251.0725 
L 72.56 238.750833 
L 72.56 238.750833 
z
" clip-path="url(#pfb188b5750)" style="fill: #1f9e89"/>
   </g>
   <g id="patch_66">
    <path d="M 72.56 226.429167 
L 72.56 226.429167 
L 72.56 214.1075 
L 72.56 214.1075 
z
" clip-path="url(#pfb188b5750)" style="fill: #1f9e89"/>
   </g>
   <g id="patch_67">
    <path d="M 72.56 201.785833 
L 72.56 201.785833 
L 72.56 189.464167 
L 72.56 189.464167 
z
" clip-path="url(#pfb188b5750)" style="fill: #1f9e89"/>
   </g>
   <g id="patch_68">
    <path d="M 174.423752 177.1425 
L 303.086757 177.1425 
L 303.086757 164.820833 
L 174.423752 164.820833 
z
" clip-path="url(#pfb188b5750)" style="fill: #1f9e89"/>
   </g>
   <g id="patch_69">
    <path d="M 72.56 152.499167 
L 72.56 152.499167 
L 72.56 140.1775 
L 72.56 140.1775 
z
" clip-path="url(#pfb188b5750)" style="fill: #1f9e89"/>
   </g>
   <g id="patch_70">
    <path d="M 72.56 127.855833 
L 72.56 127.855833 
L 72.56 115.534167 
L 72.56 115.534167 
z
" clip-path="url(#pfb188b5750)" style="fill: #1f9e89"/>
   </g>
   <g id="patch_71">
    <path d="M 185.036016 103.2125 
L 266.526363 103.2125 
L 266.526363 90.890833 
L 185.036016 90.890833 
z
" clip-path="url(#pfb188b5750)" style="fill: #1f9e89"/>
   </g>
   <g id="patch_72">
    <path d="M 72.56 78.569167 
L 72.56 78.569167 
L 72.56 66.2475 
L 72.56 66.2475 
z
" clip-path="url(#pfb188b5750)" style="fill: #1f9e89"/>
   </g>
   <g id="patch_73">
    <path d="M 265.94124 53.925833 
L 271.010594 53.925833 
L 271.010594 41.604167 
L 265.94124 41.604167 
z
" clip-path="url(#pfb188b5750)" style="fill: #1f9e89"/>
   </g>
   <g id="patch_74">
    <path d="M 72.56 29.2825 
L 72.56 29.2825 
L 72.56 16.960833 
L 72.56 16.960833 
z
" clip-path="url(#pfb188b5750)" style="fill: #1f9e89"/>
   </g>
   <g id="patch_75">
    <path d="M 133.386829 300.359167 
L 161.783638 300.359167 
L 161.783638 288.0375 
L 133.386829 288.0375 
z
" clip-path="url(#pfb188b5750)" style="fill: #35b779"/>
   </g>
   <g id="patch_76">
    <path d="M 139.982433 275.715833 
L 178.599783 275.715833 
L 178.599783 263.394167 
L 139.982433 263.394167 
z
" clip-path="url(#pfb188b5750)" style="fill: #35b779"/>
   </g>
   <g id="patch_77">
    <path d="M 72.56 251.0725 
L 72.56 251.0725 
L 72.56 238.750833 
L 72.56 238.750833 
z
" clip-path="url(#pfb188b5750)" style="fill: #35b779"/>
   </g>
   <g id="patch_78">
    <path d="M 230.865368 226.429167 
L 272.531153 226.429167 
L 272.531153 214.1075 
L 230.865368 214.1075 
z
" clip-path="url(#pfb188b5750)" style="fill: #35b779"/>
   </g>
   <g id="patch_79">
    <path d="M 213.943632 201.785833 
L 303.273603 201.785833 
L 303.273603 189.464167 
L 213.943632 189.464167 
z
" clip-path="url(#pfb188b5750)" style="fill: #35b779"/>
   </g>
   <g id="patch_80">
    <path d="M 72.56 177.1425 
L 72.56 177.1425 
L 72.56 164.820833 
L 72.56 164.820833 
z
" clip-path="url(#pfb188b5750)" style="fill: #35b779"/>
   </g>
   <g id="patch_81">
    <path d="M 202.660022 152.499167 
L 292.176783 152.499167 
L 292.176783 140.1775 
L 202.660022 140.1775 
z
" clip-path="url(#pfb188b5750)" style="fill: #35b779"/>
   </g>
   <g id="patch_82">
    <path d="M 72.56 127.855833 
L 129.585226 127.855833 
L 129.585226 115.534167 
L 72.56 115.534167 
z
" clip-path="url(#pfb188b5750)" style="fill: #35b779"/>
   </g>
   <g id="patch_83">
    <path d="M 266.526363 103.2125 
L 325.230476 103.2125 
L 325.230476 90.890833 
L 266.526363 90.890833 
z
" clip-path="url(#pfb188b5750)" style="fill: #35b779"/>
   </g>
   <g id="patch_84">
    <path d="M 72.56 78.569167 
L 72.56 78.569167 
L 72.56 66.2475 
L 72.56 66.2475 
z
" clip-path="url(#pfb188b5750)" style="fill: #35b779"/>
   </g>
   <g id="patch_85">
    <path d="M 72.56 53.925833 
L 72.56 53.925833 
L 72.56 41.604167 
L 72.56 41.604167 
z
" clip-path="url(#pfb188b5750)" style="fill: #35b779"/>
   </g>
   <g id="patch_86">
    <path d="M 72.56 29.2825 
L 72.56 29.2825 
L 72.56 16.960833 
L 72.56 16.960833 
z
" clip-path="url(#pfb188b5750)" style="fill: #35b779"/>
   </g>
   <g id="patch_87">
    <path d="M 161.783638 300.359167 
L 243.665189 300.359167 
L 243.665189 288.0375 
L 161.783638 288.0375 
z
" clip-path="url(#pfb188b5750)" style="fill: #6ece58"/>
   </g>
   <g id="patch_88">
    <path d="M 178.599783 275.715833 
L 215.665554 275.715833 
L 215.665554 263.394167 
L 178.599783 263.394167 
z
" clip-path="url(#pfb188b5750)" style="fill: #6ece58"/>
   </g>
   <g id="patch_89">
    <path d="M 72.56 251.0725 
L 72.56 251.0725 
L 72.56 238.750833 
L 72.56 238.750833 
z
" clip-path="url(#pfb188b5750)" style="fill: #6ece58"/>
   </g>
   <g id="patch_90">
    <path d="M 272.531153 226.429167 
L 325.230476 226.429167 
L 325.230476 214.1075 
L 272.531153 214.1075 
z
" clip-path="url(#pfb188b5750)" style="fill: #6ece58"/>
   </g>
   <g id="patch_91">
    <path d="M 72.56 201.785833 
L 72.56 201.785833 
L 72.56 189.464167 
L 72.56 189.464167 
z
" clip-path="url(#pfb188b5750)" style="fill: #6ece58"/>
   </g>
   <g id="patch_92">
    <path d="M 303.086757 177.1425 
L 320.886725 177.1425 
L 320.886725 164.820833 
L 303.086757 164.820833 
z
" clip-path="url(#pfb188b5750)" style="fill: #6ece58"/>
   </g>
   <g id="patch_93">
    <path d="M 72.56 152.499167 
L 72.56 152.499167 
L 72.56 140.1775 
L 72.56 140.1775 
z
" clip-path="url(#pfb188b5750)" style="fill: #6ece58"/>
   </g>
   <g id="patch_94">
    <path d="M 129.585226 127.855833 
L 157.005352 127.855833 
L 157.005352 115.534167 
L 129.585226 115.534167 
z
" clip-path="url(#pfb188b5750)" style="fill: #6ece58"/>
   </g>
   <g id="patch_95">
    <path d="M 72.56 103.2125 
L 72.56 103.2125 
L 72.56 90.890833 
L 72.56 90.890833 
z
" clip-path="url(#pfb188b5750)" style="fill: #6ece58"/>
   </g>
   <g id="patch_96">
    <path d="M 291.050854 78.569167 
L 325.230476 78.569167 
L 325.230476 66.2475 
L 291.050854 66.2475 
z
" clip-path="url(#pfb188b5750)" style="fill: #6ece58"/>
   </g>
   <g id="patch_97">
    <path d="M 271.010594 53.925833 
L 279.68484 53.925833 
L 279.68484 41.604167 
L 271.010594 41.604167 
z
" clip-path="url(#pfb188b5750)" style="fill: #6ece58"/>
   </g>
   <g id="patch_98">
    <path d="M 72.56 29.2825 
L 72.56 29.2825 
L 72.56 16.960833 
L 72.56 16.960833 
z
" clip-path="url(#pfb188b5750)" style="fill: #6ece58"/>
   </g>
   <g id="patch_99">
    <path d="M 72.56 300.359167 
L 72.56 300.359167 
L 72.56 288.0375 
L 72.56 288.0375 
z
" clip-path="url(#pfb188b5750)" style="fill: #b5de2b"/>
   </g>
   <g id="patch_100">
    <path d="M 215.665554 275.715833 
L 325.230476 275.715833 
L 325.230476 263.394167 
L 215.665554 263.394167 
z
" clip-path="url(#pfb188b5750)" style="fill: #b5de2b"/>
   </g>
   <g id="patch_101">
    <path d="M 72.56 251.0725 
L 72.56 251.0725 
L 72.56 238.750833 
L 72.56 238.750833 
z
" clip-path="url(#pfb188b5750)" style="fill: #b5de2b"/>
   </g>
   <g id="patch_102">
    <path d="M 72.56 226.429167 
L 72.56 226.429167 
L 72.56 214.1075 
L 72.56 214.1075 
z
" clip-path="url(#pfb188b5750)" style="fill: #b5de2b"/>
   </g>
   <g id="patch_103">
    <path d="M 303.273603 201.785833 
L 325.230476 201.785833 
L 325.230476 189.464167 
L 303.273603 189.464167 
z
" clip-path="url(#pfb188b5750)" style="fill: #b5de2b"/>
   </g>
   <g id="patch_104">
    <path d="M 72.56 177.1425 
L 72.56 177.1425 
L 72.56 164.820833 
L 72.56 164.820833 
z
" clip-path="url(#pfb188b5750)" style="fill: #b5de2b"/>
   </g>
   <g id="patch_105">
    <path d="M 72.56 152.499167 
L 72.56 152.499167 
L 72.56 140.1775 
L 72.56 140.1775 
z
" clip-path="url(#pfb188b5750)" style="fill: #b5de2b"/>
   </g>
   <g id="patch_106">
    <path d="M 157.005352 127.855833 
L 298.679871 127.855833 
L 298.679871 115.534167 
L 157.005352 115.534167 
z
" clip-path="url(#pfb188b5750)" style="fill: #b5de2b"/>
   </g>
   <g id="patch_107">
    <path d="M 72.56 103.2125 
L 72.56 103.2125 
L 72.56 90.890833 
L 72.56 90.890833 
z
" clip-path="url(#pfb188b5750)" style="fill: #b5de2b"/>
   </g>
   <g id="patch_108">
    <path d="M 72.56 78.569167 
L 72.56 78.569167 
L 72.56 66.2475 
L 72.56 66.2475 
z
" clip-path="url(#pfb188b5750)" style="fill: #b5de2b"/>
   </g>
   <g id="patch_109">
    <path d="M 279.68484 53.925833 
L 325.230476 53.925833 
L 325.230476 41.604167 
L 279.68484 41.604167 
z
" clip-path="url(#pfb188b5750)" style="fill: #b5de2b"/>
   </g>
   <g id="patch_110">
    <path d="M 72.56 29.2825 
L 72.56 29.2825 
L 72.56 16.960833 
L 72.56 16.960833 
z
" clip-path="url(#pfb188b5750)" style="fill: #b5de2b"/>
   </g>
   <g id="patch_111">
    <path d="M 243.665189 300.359167 
L 325.230476 300.359167 
L 325.230476 288.0375 
L 243.665189 288.0375 
z
" clip-path="url(#pfb188b5750)" style="fill: #fde725"/>
   </g>
   <g id="patch_112">
    <path d="M 72.56 275.715833 
L 72.56 275.715833 
L 72.56 263.394167 
L 72.56 263.394167 
z
" clip-path="url(#pfb188b5750)" style="fill: #fde725"/>
   </g>
   <g id="patch_113">
    <path d="M 263.274412 251.0725 
L 325.230476 251.0725 
L 325.230476 238.750833 
L 263.274412 238.750833 
z
" clip-path="url(#pfb188b5750)" style="fill: #fde725"/>
   </g>
   <g id="patch_114">
    <path d="M 72.56 226.429167 
L 72.56 226.429167 
L 72.56 214.1075 
L 72.56 214.1075 
z
" clip-path="url(#pfb188b5750)" style="fill: #fde725"/>
   </g>
   <g id="patch_115">
    <path d="M 72.56 201.785833 
L 72.56 201.785833 
L 72.56 189.464167 
L 72.56 189.464167 
z
" clip-path="url(#pfb188b5750)" style="fill: #fde725"/>
   </g>
   <g id="patch_116">
    <path d="M 320.886725 177.1425 
L 325.230476 177.1425 
L 325.230476 164.820833 
L 320.886725 164.820833 
z
" clip-path="url(#pfb188b5750)" style="fill: #fde725"/>
   </g>
   <g id="patch_117">
    <path d="M 292.176783 152.499167 
L 325.230476 152.499167 
L 325.230476 140.1775 
L 292.176783 140.1775 
z
" clip-path="url(#pfb188b5750)" style="fill: #fde725"/>
   </g>
   <g id="patch_118">
    <path d="M 298.679871 127.855833 
L 325.230476 127.855833 
L 325.230476 115.534167 
L 298.679871 115.534167 
z
" clip-path="url(#pfb188b5750)" style="fill: #fde725"/>
   </g>
   <g id="patch_119">
    <path d="M 72.56 103.2125 
L 72.56 103.2125 
L 72.56 90.890833 
L 72.56 90.890833 
z
" clip-path="url(#pfb188b5750)" style="fill: #fde725"/>
   </g>
   <g id="patch_120">
    <path d="M 72.56 78.569167 
L 72.56 78.569167 
L 72.56 66.2475 
L 72.56 66.2475 
z
" clip-path="url(#pfb188b5750)" style="fill: #fde725"/>
   </g>
   <g id="patch_121">
    <path d="M 72.56 53.925833 
L 72.56 53.925833 
L 72.56 41.604167 
L 72.56 41.604167 
z
" clip-path="url(#pfb188b5750)" style="fill: #fde725"/>
   </g>
   <g id="patch_122">
    <path d="M 305.961064 29.2825 
L 325.230476 29.2825 
L 325.230476 16.960833 
L 305.961064 16.960833 
z
" clip-path="url(#pfb188b5750)" style="fill: #fde725"/>
   </g>
   <g id="matplotlib.axis_1">
    <g id="xtick_1">
     <g id="line2d_1">
      <defs>
       <path id="m78cbb978cb" d="M 0 0 
L 0 3.5 
" style="stroke: #000000; stroke-width: 0.8"/>
      </defs>
      <g>
       <use xlink:href="#m78cbb978cb" x="72.56" y="306.52" style="stroke: #000000; stroke-width: 0.8"/>
      </g>
     </g>
     <g id="text_1">
      <!-- 0.0 -->
      <g transform="translate(66.993906 318.838906) scale(0.07 -0.07)">
       <defs>
        <path id="DejaVuSans-30" d="M 2034 4250 
Q 1547 4250 1301 3770 
Q 1056 3291 1056 2328 
Q 1056 1369 1301 889 
Q 1547 409 2034 409 
Q 2525 409 2770 889 
Q 3016 1369 3016 2328 
Q 3016 3291 2770 3770 
Q 2525 4250 2034 4250 
z
M 2034 4750 
Q 2819 4750 3233 4129 
Q 3647 3509 3647 2328 
Q 3647 1150 3233 529 
Q 2819 -91 2034 -91 
Q 1250 -91 836 529 
Q 422 1150 422 2328 
Q 422 3509 836 4129 
Q 1250 4750 2034 4750 
z
" transform="scale(0.015625)"/>
        <path id="DejaVuSans-2e" d="M 684 794 
L 1344 794 
L 1344 0 
L 684 0 
L 684 794 
z
" transform="scale(0.015625)"/>
       </defs>
       <use xlink:href="#DejaVuSans-30"/>
       <use xlink:href="#DejaVuSans-2e" x="63.623047"/>
       <use xlink:href="#DejaVuSans-30" x="95.410156"/>
      </g>
     </g>
    </g>
    <g id="xtick_2">
     <g id="line2d_2">
      <g>
       <use xlink:href="#m78cbb978cb" x="123.094095" y="306.52" style="stroke: #000000; stroke-width: 0.8"/>
      </g>
     </g>
     <g id="text_2">
      <!-- 0.2 -->
      <g transform="translate(117.528001 318.838906) scale(0.07 -0.07)">
       <defs>
        <path id="DejaVuSans-32" d="M 1228 531 
L 3431 531 
L 3431 0 
L 469 0 
L 469 531 
Q 828 903 1448 1529 
Q 2069 2156 2228 2338 
Q 2531 2678 2651 2914 
Q 2772 3150 2772 3378 
Q 2772 3750 2511 3984 
Q 2250 4219 1831 4219 
Q 1534 4219 1204 4116 
Q 875 4013 500 3803 
L 500 4441 
Q 881 4594 1212 4672 
Q 1544 4750 1819 4750 
Q 2544 4750 2975 4387 
Q 3406 4025 3406 3419 
Q 3406 3131 3298 2873 
Q 3191 2616 2906 2266 
Q 2828 2175 2409 1742 
Q 1991 1309 1228 531 
z
" transform="scale(0.015625)"/>
       </defs>
       <use xlink:href="#DejaVuSans-30"/>
       <use xlink:href="#DejaVuSans-2e" x="63.623047"/>
       <use xlink:href="#DejaVuSans-32" x="95.410156"/>
      </g>
     </g>
    </g>
    <g id="xtick_3">
     <g id="line2d_3">
      <g>
       <use xlink:href="#m78cbb978cb" x="173.62819" y="306.52" style="stroke: #000000; stroke-width: 0.8"/>
      </g>
     </g>
     <g id="text_3">
      <!-- 0.4 -->
      <g transform="translate(168.062097 318.838906) scale(0.07 -0.07)">
       <defs>
        <path id="DejaVuSans-34" d="M 2419 4116 
L 825 1625 
L 2419 1625 
L 2419 4116 
z
M 2253 4666 
L 3047 4666 
L 3047 1625 
L 3713 1625 
L 3713 1100 
L 3047 1100 
L 3047 0 
L 2419 0 
L 2419 1100 
L 313 1100 
L 313 1709 
L 2253 4666 
z
" transform="scale(0.015625)"/>
       </defs>
       <use xlink:href="#DejaVuSans-30"/>
       <use xlink:href="#DejaVuSans-2e" x="63.623047"/>
       <use xlink:href="#DejaVuSans-34" x="95.410156"/>
      </g>
     </g>
    </g>
    <g id="xtick_4">
     <g id="line2d_4">
      <g>
       <use xlink:href="#m78cbb978cb" x="224.162286" y="306.52" style="stroke: #000000; stroke-width: 0.8"/>
      </g>
     </g>
     <g id="text_4">
      <!-- 0.6 -->
      <g transform="translate(218.596192 318.838906) scale(0.07 -0.07)">
       <defs>
        <path id="DejaVuSans-36" d="M 2113 2584 
Q 1688 2584 1439 2293 
Q 1191 2003 1191 1497 
Q 1191 994 1439 701 
Q 1688 409 2113 409 
Q 2538 409 2786 701 
Q 3034 994 3034 1497 
Q 3034 2003 2786 2293 
Q 2538 2584 2113 2584 
z
M 3366 4563 
L 3366 3988 
Q 3128 4100 2886 4159 
Q 2644 4219 2406 4219 
Q 1781 4219 1451 3797 
Q 1122 3375 1075 2522 
Q 1259 2794 1537 2939 
Q 1816 3084 2150 3084 
Q 2853 3084 3261 2657 
Q 3669 2231 3669 1497 
Q 3669 778 3244 343 
Q 2819 -91 2113 -91 
Q 1303 -91 875 529 
Q 447 1150 447 2328 
Q 447 3434 972 4092 
Q 1497 4750 2381 4750 
Q 2619 4750 2861 4703 
Q 3103 4656 3366 4563 
z
" transform="scale(0.015625)"/>
       </defs>
       <use xlink:href="#DejaVuSans-30"/>
       <use xlink:href="#DejaVuSans-2e" x="63.623047"/>
       <use xlink:href="#DejaVuSans-36" x="95.410156"/>
      </g>
     </g>
    </g>
    <g id="xtick_5">
     <g id="line2d_5">
      <g>
       <use xlink:href="#m78cbb978cb" x="274.696381" y="306.52" style="stroke: #000000; stroke-width: 0.8"/>
      </g>
     </g>
     <g id="text_5">
      <!-- 0.8 -->
      <g transform="translate(269.130287 318.838906) scale(0.07 -0.07)">
       <defs>
        <path id="DejaVuSans-38" d="M 2034 2216 
Q 1584 2216 1326 1975 
Q 1069 1734 1069 1313 
Q 1069 891 1326 650 
Q 1584 409 2034 409 
Q 2484 409 2743 651 
Q 3003 894 3003 1313 
Q 3003 1734 2745 1975 
Q 2488 2216 2034 2216 
z
M 1403 2484 
Q 997 2584 770 2862 
Q 544 3141 544 3541 
Q 544 4100 942 4425 
Q 1341 4750 2034 4750 
Q 2731 4750 3128 4425 
Q 3525 4100 3525 3541 
Q 3525 3141 3298 2862 
Q 3072 2584 2669 2484 
Q 3125 2378 3379 2068 
Q 3634 1759 3634 1313 
Q 3634 634 3220 271 
Q 2806 -91 2034 -91 
Q 1263 -91 848 271 
Q 434 634 434 1313 
Q 434 1759 690 2068 
Q 947 2378 1403 2484 
z
M 1172 3481 
Q 1172 3119 1398 2916 
Q 1625 2713 2034 2713 
Q 2441 2713 2670 2916 
Q 2900 3119 2900 3481 
Q 2900 3844 2670 4047 
Q 2441 4250 2034 4250 
Q 1625 4250 1398 4047 
Q 1172 3844 1172 3481 
z
" transform="scale(0.015625)"/>
       </defs>
       <use xlink:href="#DejaVuSans-30"/>
       <use xlink:href="#DejaVuSans-2e" x="63.623047"/>
       <use xlink:href="#DejaVuSans-38" x="95.410156"/>
      </g>
     </g>
    </g>
    <g id="xtick_6">
     <g id="line2d_6">
      <g>
       <use xlink:href="#m78cbb978cb" x="325.230476" y="306.52" style="stroke: #000000; stroke-width: 0.8"/>
      </g>
     </g>
     <g id="text_6">
      <!-- 1.0 -->
      <g transform="translate(319.664382 318.838906) scale(0.07 -0.07)">
       <defs>
        <path id="DejaVuSans-31" d="M 794 531 
L 1825 531 
L 1825 4091 
L 703 3866 
L 703 4441 
L 1819 4666 
L 2450 4666 
L 2450 531 
L 3481 531 
L 3481 0 
L 794 0 
L 794 531 
z
" transform="scale(0.015625)"/>
       </defs>
       <use xlink:href="#DejaVuSans-31"/>
       <use xlink:href="#DejaVuSans-2e" x="63.623047"/>
       <use xlink:href="#DejaVuSans-30" x="95.410156"/>
      </g>
     </g>
    </g>
    <g id="text_7">
     <!-- Proportion on Clients -->
     <g transform="translate(152.929969 331.893125) scale(0.1 -0.1)">
      <defs>
       <path id="DejaVuSans-50" d="M 1259 4147 
L 1259 2394 
L 2053 2394 
Q 2494 2394 2734 2622 
Q 2975 2850 2975 3272 
Q 2975 3691 2734 3919 
Q 2494 4147 2053 4147 
L 1259 4147 
z
M 628 4666 
L 2053 4666 
Q 2838 4666 3239 4311 
Q 3641 3956 3641 3272 
Q 3641 2581 3239 2228 
Q 2838 1875 2053 1875 
L 1259 1875 
L 1259 0 
L 628 0 
L 628 4666 
z
" transform="scale(0.015625)"/>
       <path id="DejaVuSans-72" d="M 2631 2963 
Q 2534 3019 2420 3045 
Q 2306 3072 2169 3072 
Q 1681 3072 1420 2755 
Q 1159 2438 1159 1844 
L 1159 0 
L 581 0 
L 581 3500 
L 1159 3500 
L 1159 2956 
Q 1341 3275 1631 3429 
Q 1922 3584 2338 3584 
Q 2397 3584 2469 3576 
Q 2541 3569 2628 3553 
L 2631 2963 
z
" transform="scale(0.015625)"/>
       <path id="DejaVuSans-6f" d="M 1959 3097 
Q 1497 3097 1228 2736 
Q 959 2375 959 1747 
Q 959 1119 1226 758 
Q 1494 397 1959 397 
Q 2419 397 2687 759 
Q 2956 1122 2956 1747 
Q 2956 2369 2687 2733 
Q 2419 3097 1959 3097 
z
M 1959 3584 
Q 2709 3584 3137 3096 
Q 3566 2609 3566 1747 
Q 3566 888 3137 398 
Q 2709 -91 1959 -91 
Q 1206 -91 779 398 
Q 353 888 353 1747 
Q 353 2609 779 3096 
Q 1206 3584 1959 3584 
z
" transform="scale(0.015625)"/>
       <path id="DejaVuSans-70" d="M 1159 525 
L 1159 -1331 
L 581 -1331 
L 581 3500 
L 1159 3500 
L 1159 2969 
Q 1341 3281 1617 3432 
Q 1894 3584 2278 3584 
Q 2916 3584 3314 3078 
Q 3713 2572 3713 1747 
Q 3713 922 3314 415 
Q 2916 -91 2278 -91 
Q 1894 -91 1617 61 
Q 1341 213 1159 525 
z
M 3116 1747 
Q 3116 2381 2855 2742 
Q 2594 3103 2138 3103 
Q 1681 3103 1420 2742 
Q 1159 2381 1159 1747 
Q 1159 1113 1420 752 
Q 1681 391 2138 391 
Q 2594 391 2855 752 
Q 3116 1113 3116 1747 
z
" transform="scale(0.015625)"/>
       <path id="DejaVuSans-74" d="M 1172 4494 
L 1172 3500 
L 2356 3500 
L 2356 3053 
L 1172 3053 
L 1172 1153 
Q 1172 725 1289 603 
Q 1406 481 1766 481 
L 2356 481 
L 2356 0 
L 1766 0 
Q 1100 0 847 248 
Q 594 497 594 1153 
L 594 3053 
L 172 3053 
L 172 3500 
L 594 3500 
L 594 4494 
L 1172 4494 
z
" transform="scale(0.015625)"/>
       <path id="DejaVuSans-69" d="M 603 3500 
L 1178 3500 
L 1178 0 
L 603 0 
L 603 3500 
z
M 603 4863 
L 1178 4863 
L 1178 4134 
L 603 4134 
L 603 4863 
z
" transform="scale(0.015625)"/>
       <path id="DejaVuSans-6e" d="M 3513 2113 
L 3513 0 
L 2938 0 
L 2938 2094 
Q 2938 2591 2744 2837 
Q 2550 3084 2163 3084 
Q 1697 3084 1428 2787 
Q 1159 2491 1159 1978 
L 1159 0 
L 581 0 
L 581 3500 
L 1159 3500 
L 1159 2956 
Q 1366 3272 1645 3428 
Q 1925 3584 2291 3584 
Q 2894 3584 3203 3211 
Q 3513 2838 3513 2113 
z
" transform="scale(0.015625)"/>
       <path id="DejaVuSans-20" transform="scale(0.015625)"/>
       <path id="DejaVuSans-43" d="M 4122 4306 
L 4122 3641 
Q 3803 3938 3442 4084 
Q 3081 4231 2675 4231 
Q 1875 4231 1450 3742 
Q 1025 3253 1025 2328 
Q 1025 1406 1450 917 
Q 1875 428 2675 428 
Q 3081 428 3442 575 
Q 3803 722 4122 1019 
L 4122 359 
Q 3791 134 3420 21 
Q 3050 -91 2638 -91 
Q 1578 -91 968 557 
Q 359 1206 359 2328 
Q 359 3453 968 4101 
Q 1578 4750 2638 4750 
Q 3056 4750 3426 4639 
Q 3797 4528 4122 4306 
z
" transform="scale(0.015625)"/>
       <path id="DejaVuSans-6c" d="M 603 4863 
L 1178 4863 
L 1178 0 
L 603 0 
L 603 4863 
z
" transform="scale(0.015625)"/>
       <path id="DejaVuSans-65" d="M 3597 1894 
L 3597 1613 
L 953 1613 
Q 991 1019 1311 708 
Q 1631 397 2203 397 
Q 2534 397 2845 478 
Q 3156 559 3463 722 
L 3463 178 
Q 3153 47 2828 -22 
Q 2503 -91 2169 -91 
Q 1331 -91 842 396 
Q 353 884 353 1716 
Q 353 2575 817 3079 
Q 1281 3584 2069 3584 
Q 2775 3584 3186 3129 
Q 3597 2675 3597 1894 
z
M 3022 2063 
Q 3016 2534 2758 2815 
Q 2500 3097 2075 3097 
Q 1594 3097 1305 2825 
Q 1016 2553 972 2059 
L 3022 2063 
z
" transform="scale(0.015625)"/>
       <path id="DejaVuSans-73" d="M 2834 3397 
L 2834 2853 
Q 2591 2978 2328 3040 
Q 2066 3103 1784 3103 
Q 1356 3103 1142 2972 
Q 928 2841 928 2578 
Q 928 2378 1081 2264 
Q 1234 2150 1697 2047 
L 1894 2003 
Q 2506 1872 2764 1633 
Q 3022 1394 3022 966 
Q 3022 478 2636 193 
Q 2250 -91 1575 -91 
Q 1294 -91 989 -36 
Q 684 19 347 128 
L 347 722 
Q 666 556 975 473 
Q 1284 391 1588 391 
Q 1994 391 2212 530 
Q 2431 669 2431 922 
Q 2431 1156 2273 1281 
Q 2116 1406 1581 1522 
L 1381 1569 
Q 847 1681 609 1914 
Q 372 2147 372 2553 
Q 372 3047 722 3315 
Q 1072 3584 1716 3584 
Q 2034 3584 2315 3537 
Q 2597 3491 2834 3397 
z
" transform="scale(0.015625)"/>
      </defs>
      <use xlink:href="#DejaVuSans-50"/>
      <use xlink:href="#DejaVuSans-72" x="58.552734"/>
      <use xlink:href="#DejaVuSans-6f" x="97.416016"/>
      <use xlink:href="#DejaVuSans-70" x="158.597656"/>
      <use xlink:href="#DejaVuSans-6f" x="222.074219"/>
      <use xlink:href="#DejaVuSans-72" x="283.255859"/>
      <use xlink:href="#DejaVuSans-74" x="324.369141"/>
      <use xlink:href="#DejaVuSans-69" x="363.578125"/>
      <use xlink:href="#DejaVuSans-6f" x="391.361328"/>
      <use xlink:href="#DejaVuSans-6e" x="452.542969"/>
      <use xlink:href="#DejaVuSans-20" x="515.921875"/>
      <use xlink:href="#DejaVuSans-6f" x="547.708984"/>
      <use xlink:href="#DejaVuSans-6e" x="608.890625"/>
      <use xlink:href="#DejaVuSans-20" x="672.269531"/>
      <use xlink:href="#DejaVuSans-43" x="704.056641"/>
      <use xlink:href="#DejaVuSans-6c" x="773.880859"/>
      <use xlink:href="#DejaVuSans-69" x="801.664062"/>
      <use xlink:href="#DejaVuSans-65" x="829.447266"/>
      <use xlink:href="#DejaVuSans-6e" x="890.970703"/>
      <use xlink:href="#DejaVuSans-74" x="954.349609"/>
      <use xlink:href="#DejaVuSans-73" x="993.558594"/>
     </g>
    </g>
   </g>
   <g id="matplotlib.axis_2">
    <g id="ytick_1">
     <g id="line2d_7">
      <defs>
       <path id="m25bdc835fb" d="M 0 0 
L -3.5 0 
" style="stroke: #000000; stroke-width: 0.8"/>
      </defs>
      <g>
       <use xlink:href="#m25bdc835fb" x="72.56" y="294.198333" style="stroke: #000000; stroke-width: 0.8"/>
      </g>
     </g>
     <g id="text_8">
      <!-- Open -->
      <g transform="translate(46.862344 293.470443) scale(0.07 -0.07)">
       <defs>
        <path id="DejaVuSans-4f" d="M 2522 4238 
Q 1834 4238 1429 3725 
Q 1025 3213 1025 2328 
Q 1025 1447 1429 934 
Q 1834 422 2522 422 
Q 3209 422 3611 934 
Q 4013 1447 4013 2328 
Q 4013 3213 3611 3725 
Q 3209 4238 2522 4238 
z
M 2522 4750 
Q 3503 4750 4090 4092 
Q 4678 3434 4678 2328 
Q 4678 1225 4090 567 
Q 3503 -91 2522 -91 
Q 1538 -91 948 565 
Q 359 1222 359 2328 
Q 359 3434 948 4092 
Q 1538 4750 2522 4750 
z
" transform="scale(0.015625)"/>
       </defs>
       <use xlink:href="#DejaVuSans-4f"/>
       <use xlink:href="#DejaVuSans-70" x="78.710938"/>
       <use xlink:href="#DejaVuSans-65" x="142.1875"/>
       <use xlink:href="#DejaVuSans-6e" x="203.710938"/>
      </g>
      <!-- QA -->
      <g transform="translate(55.26125 301.308911) scale(0.07 -0.07)">
       <defs>
        <path id="DejaVuSans-51" d="M 2522 4238 
Q 1834 4238 1429 3725 
Q 1025 3213 1025 2328 
Q 1025 1447 1429 934 
Q 1834 422 2522 422 
Q 3209 422 3611 934 
Q 4013 1447 4013 2328 
Q 4013 3213 3611 3725 
Q 3209 4238 2522 4238 
z
M 3406 84 
L 4238 -825 
L 3475 -825 
L 2784 -78 
Q 2681 -84 2626 -87 
Q 2572 -91 2522 -91 
Q 1538 -91 948 567 
Q 359 1225 359 2328 
Q 359 3434 948 4092 
Q 1538 4750 2522 4750 
Q 3503 4750 4090 4092 
Q 4678 3434 4678 2328 
Q 4678 1516 4351 937 
Q 4025 359 3406 84 
z
" transform="scale(0.015625)"/>
        <path id="DejaVuSans-41" d="M 2188 4044 
L 1331 1722 
L 3047 1722 
L 2188 4044 
z
M 1831 4666 
L 2547 4666 
L 4325 0 
L 3669 0 
L 3244 1197 
L 1141 1197 
L 716 0 
L 50 0 
L 1831 4666 
z
" transform="scale(0.015625)"/>
       </defs>
       <use xlink:href="#DejaVuSans-51"/>
       <use xlink:href="#DejaVuSans-41" x="78.710938"/>
      </g>
     </g>
    </g>
    <g id="ytick_2">
     <g id="line2d_8">
      <g>
       <use xlink:href="#m25bdc835fb" x="72.56" y="269.555" style="stroke: #000000; stroke-width: 0.8"/>
      </g>
     </g>
     <g id="text_9">
      <!-- General -->
      <g transform="translate(37.973438 268.827109) scale(0.07 -0.07)">
       <defs>
        <path id="DejaVuSans-47" d="M 3809 666 
L 3809 1919 
L 2778 1919 
L 2778 2438 
L 4434 2438 
L 4434 434 
Q 4069 175 3628 42 
Q 3188 -91 2688 -91 
Q 1594 -91 976 548 
Q 359 1188 359 2328 
Q 359 3472 976 4111 
Q 1594 4750 2688 4750 
Q 3144 4750 3555 4637 
Q 3966 4525 4313 4306 
L 4313 3634 
Q 3963 3931 3569 4081 
Q 3175 4231 2741 4231 
Q 1884 4231 1454 3753 
Q 1025 3275 1025 2328 
Q 1025 1384 1454 906 
Q 1884 428 2741 428 
Q 3075 428 3337 486 
Q 3600 544 3809 666 
z
" transform="scale(0.015625)"/>
        <path id="DejaVuSans-61" d="M 2194 1759 
Q 1497 1759 1228 1600 
Q 959 1441 959 1056 
Q 959 750 1161 570 
Q 1363 391 1709 391 
Q 2188 391 2477 730 
Q 2766 1069 2766 1631 
L 2766 1759 
L 2194 1759 
z
M 3341 1997 
L 3341 0 
L 2766 0 
L 2766 531 
Q 2569 213 2275 61 
Q 1981 -91 1556 -91 
Q 1019 -91 701 211 
Q 384 513 384 1019 
Q 384 1609 779 1909 
Q 1175 2209 1959 2209 
L 2766 2209 
L 2766 2266 
Q 2766 2663 2505 2880 
Q 2244 3097 1772 3097 
Q 1472 3097 1187 3025 
Q 903 2953 641 2809 
L 641 3341 
Q 956 3463 1253 3523 
Q 1550 3584 1831 3584 
Q 2591 3584 2966 3190 
Q 3341 2797 3341 1997 
z
" transform="scale(0.015625)"/>
       </defs>
       <use xlink:href="#DejaVuSans-47"/>
       <use xlink:href="#DejaVuSans-65" x="77.490234"/>
       <use xlink:href="#DejaVuSans-6e" x="139.013672"/>
       <use xlink:href="#DejaVuSans-65" x="202.392578"/>
       <use xlink:href="#DejaVuSans-72" x="263.916016"/>
       <use xlink:href="#DejaVuSans-61" x="305.029297"/>
       <use xlink:href="#DejaVuSans-6c" x="366.308594"/>
      </g>
      <!-- QA -->
      <g transform="translate(55.26125 276.665578) scale(0.07 -0.07)">
       <use xlink:href="#DejaVuSans-51"/>
       <use xlink:href="#DejaVuSans-41" x="78.710938"/>
      </g>
     </g>
    </g>
    <g id="ytick_3">
     <g id="line2d_9">
      <g>
       <use xlink:href="#m25bdc835fb" x="72.56" y="244.911667" style="stroke: #000000; stroke-width: 0.8"/>
      </g>
     </g>
     <g id="text_10">
      <!-- Closed -->
      <g transform="translate(42.046563 244.183776) scale(0.07 -0.07)">
       <defs>
        <path id="DejaVuSans-64" d="M 2906 2969 
L 2906 4863 
L 3481 4863 
L 3481 0 
L 2906 0 
L 2906 525 
Q 2725 213 2448 61 
Q 2172 -91 1784 -91 
Q 1150 -91 751 415 
Q 353 922 353 1747 
Q 353 2572 751 3078 
Q 1150 3584 1784 3584 
Q 2172 3584 2448 3432 
Q 2725 3281 2906 2969 
z
M 947 1747 
Q 947 1113 1208 752 
Q 1469 391 1925 391 
Q 2381 391 2643 752 
Q 2906 1113 2906 1747 
Q 2906 2381 2643 2742 
Q 2381 3103 1925 3103 
Q 1469 3103 1208 2742 
Q 947 2381 947 1747 
z
" transform="scale(0.015625)"/>
       </defs>
       <use xlink:href="#DejaVuSans-43"/>
       <use xlink:href="#DejaVuSans-6c" x="69.824219"/>
       <use xlink:href="#DejaVuSans-6f" x="97.607422"/>
       <use xlink:href="#DejaVuSans-73" x="158.789062"/>
       <use xlink:href="#DejaVuSans-65" x="210.888672"/>
       <use xlink:href="#DejaVuSans-64" x="272.412109"/>
      </g>
      <!-- QA -->
      <g transform="translate(55.26125 252.022245) scale(0.07 -0.07)">
       <use xlink:href="#DejaVuSans-51"/>
       <use xlink:href="#DejaVuSans-41" x="78.710938"/>
      </g>
     </g>
    </g>
    <g id="ytick_4">
     <g id="line2d_10">
      <g>
       <use xlink:href="#m25bdc835fb" x="72.56" y="220.268333" style="stroke: #000000; stroke-width: 0.8"/>
      </g>
     </g>
     <g id="text_11">
      <!-- Classi- -->
      <g transform="translate(42.674375 219.540443) scale(0.07 -0.07)">
       <defs>
        <path id="DejaVuSans-2d" d="M 313 2009 
L 1997 2009 
L 1997 1497 
L 313 1497 
L 313 2009 
z
" transform="scale(0.015625)"/>
       </defs>
       <use xlink:href="#DejaVuSans-43"/>
       <use xlink:href="#DejaVuSans-6c" x="69.824219"/>
       <use xlink:href="#DejaVuSans-61" x="97.607422"/>
       <use xlink:href="#DejaVuSans-73" x="158.886719"/>
       <use xlink:href="#DejaVuSans-73" x="210.986328"/>
       <use xlink:href="#DejaVuSans-69" x="263.085938"/>
       <use xlink:href="#DejaVuSans-2d" x="290.869141"/>
      </g>
      <!-- fication -->
      <g transform="translate(39.604219 227.378911) scale(0.07 -0.07)">
       <defs>
        <path id="DejaVuSans-66" d="M 2375 4863 
L 2375 4384 
L 1825 4384 
Q 1516 4384 1395 4259 
Q 1275 4134 1275 3809 
L 1275 3500 
L 2222 3500 
L 2222 3053 
L 1275 3053 
L 1275 0 
L 697 0 
L 697 3053 
L 147 3053 
L 147 3500 
L 697 3500 
L 697 3744 
Q 697 4328 969 4595 
Q 1241 4863 1831 4863 
L 2375 4863 
z
" transform="scale(0.015625)"/>
        <path id="DejaVuSans-63" d="M 3122 3366 
L 3122 2828 
Q 2878 2963 2633 3030 
Q 2388 3097 2138 3097 
Q 1578 3097 1268 2742 
Q 959 2388 959 1747 
Q 959 1106 1268 751 
Q 1578 397 2138 397 
Q 2388 397 2633 464 
Q 2878 531 3122 666 
L 3122 134 
Q 2881 22 2623 -34 
Q 2366 -91 2075 -91 
Q 1284 -91 818 406 
Q 353 903 353 1747 
Q 353 2603 823 3093 
Q 1294 3584 2113 3584 
Q 2378 3584 2631 3529 
Q 2884 3475 3122 3366 
z
" transform="scale(0.015625)"/>
       </defs>
       <use xlink:href="#DejaVuSans-66"/>
       <use xlink:href="#DejaVuSans-69" x="35.205078"/>
       <use xlink:href="#DejaVuSans-63" x="62.988281"/>
       <use xlink:href="#DejaVuSans-61" x="117.96875"/>
       <use xlink:href="#DejaVuSans-74" x="179.248047"/>
       <use xlink:href="#DejaVuSans-69" x="218.457031"/>
       <use xlink:href="#DejaVuSans-6f" x="246.240234"/>
       <use xlink:href="#DejaVuSans-6e" x="307.421875"/>
      </g>
     </g>
    </g>
    <g id="ytick_5">
     <g id="line2d_11">
      <g>
       <use xlink:href="#m25bdc835fb" x="72.56" y="195.625" style="stroke: #000000; stroke-width: 0.8"/>
      </g>
     </g>
     <g id="text_12">
      <!-- Information -->
      <g transform="translate(25.039844 194.897109) scale(0.07 -0.07)">
       <defs>
        <path id="DejaVuSans-49" d="M 628 4666 
L 1259 4666 
L 1259 0 
L 628 0 
L 628 4666 
z
" transform="scale(0.015625)"/>
        <path id="DejaVuSans-6d" d="M 3328 2828 
Q 3544 3216 3844 3400 
Q 4144 3584 4550 3584 
Q 5097 3584 5394 3201 
Q 5691 2819 5691 2113 
L 5691 0 
L 5113 0 
L 5113 2094 
Q 5113 2597 4934 2840 
Q 4756 3084 4391 3084 
Q 3944 3084 3684 2787 
Q 3425 2491 3425 1978 
L 3425 0 
L 2847 0 
L 2847 2094 
Q 2847 2600 2669 2842 
Q 2491 3084 2119 3084 
Q 1678 3084 1418 2786 
Q 1159 2488 1159 1978 
L 1159 0 
L 581 0 
L 581 3500 
L 1159 3500 
L 1159 2956 
Q 1356 3278 1631 3431 
Q 1906 3584 2284 3584 
Q 2666 3584 2933 3390 
Q 3200 3197 3328 2828 
z
" transform="scale(0.015625)"/>
       </defs>
       <use xlink:href="#DejaVuSans-49"/>
       <use xlink:href="#DejaVuSans-6e" x="29.492188"/>
       <use xlink:href="#DejaVuSans-66" x="92.871094"/>
       <use xlink:href="#DejaVuSans-6f" x="128.076172"/>
       <use xlink:href="#DejaVuSans-72" x="189.257812"/>
       <use xlink:href="#DejaVuSans-6d" x="228.621094"/>
       <use xlink:href="#DejaVuSans-61" x="326.033203"/>
       <use xlink:href="#DejaVuSans-74" x="387.3125"/>
       <use xlink:href="#DejaVuSans-69" x="426.521484"/>
       <use xlink:href="#DejaVuSans-6f" x="454.304688"/>
       <use xlink:href="#DejaVuSans-6e" x="515.486328"/>
      </g>
      <!-- Extraction -->
      <g transform="translate(29.825 202.735578) scale(0.07 -0.07)">
       <defs>
        <path id="DejaVuSans-45" d="M 628 4666 
L 3578 4666 
L 3578 4134 
L 1259 4134 
L 1259 2753 
L 3481 2753 
L 3481 2222 
L 1259 2222 
L 1259 531 
L 3634 531 
L 3634 0 
L 628 0 
L 628 4666 
z
" transform="scale(0.015625)"/>
        <path id="DejaVuSans-78" d="M 3513 3500 
L 2247 1797 
L 3578 0 
L 2900 0 
L 1881 1375 
L 863 0 
L 184 0 
L 1544 1831 
L 300 3500 
L 978 3500 
L 1906 2253 
L 2834 3500 
L 3513 3500 
z
" transform="scale(0.015625)"/>
       </defs>
       <use xlink:href="#DejaVuSans-45"/>
       <use xlink:href="#DejaVuSans-78" x="63.183594"/>
       <use xlink:href="#DejaVuSans-74" x="122.363281"/>
       <use xlink:href="#DejaVuSans-72" x="161.572266"/>
       <use xlink:href="#DejaVuSans-61" x="202.685547"/>
       <use xlink:href="#DejaVuSans-63" x="263.964844"/>
       <use xlink:href="#DejaVuSans-74" x="318.945312"/>
       <use xlink:href="#DejaVuSans-69" x="358.154297"/>
       <use xlink:href="#DejaVuSans-6f" x="385.9375"/>
       <use xlink:href="#DejaVuSans-6e" x="447.119141"/>
      </g>
     </g>
    </g>
    <g id="ytick_6">
     <g id="line2d_12">
      <g>
       <use xlink:href="#m25bdc835fb" x="72.56" y="170.981667" style="stroke: #000000; stroke-width: 0.8"/>
      </g>
     </g>
     <g id="text_13">
      <!-- Brain- -->
      <g transform="translate(44.683594 170.253776) scale(0.07 -0.07)">
       <defs>
        <path id="DejaVuSans-42" d="M 1259 2228 
L 1259 519 
L 2272 519 
Q 2781 519 3026 730 
Q 3272 941 3272 1375 
Q 3272 1813 3026 2020 
Q 2781 2228 2272 2228 
L 1259 2228 
z
M 1259 4147 
L 1259 2741 
L 2194 2741 
Q 2656 2741 2882 2914 
Q 3109 3088 3109 3444 
Q 3109 3797 2882 3972 
Q 2656 4147 2194 4147 
L 1259 4147 
z
M 628 4666 
L 2241 4666 
Q 2963 4666 3353 4366 
Q 3744 4066 3744 3513 
Q 3744 3084 3544 2831 
Q 3344 2578 2956 2516 
Q 3422 2416 3680 2098 
Q 3938 1781 3938 1306 
Q 3938 681 3513 340 
Q 3088 0 2303 0 
L 628 0 
L 628 4666 
z
" transform="scale(0.015625)"/>
       </defs>
       <use xlink:href="#DejaVuSans-42"/>
       <use xlink:href="#DejaVuSans-72" x="68.603516"/>
       <use xlink:href="#DejaVuSans-61" x="109.716797"/>
       <use xlink:href="#DejaVuSans-69" x="170.996094"/>
       <use xlink:href="#DejaVuSans-6e" x="198.779297"/>
       <use xlink:href="#DejaVuSans-2d" x="262.158203"/>
      </g>
      <!-- storming -->
      <g transform="translate(34.487656 178.092245) scale(0.07 -0.07)">
       <defs>
        <path id="DejaVuSans-67" d="M 2906 1791 
Q 2906 2416 2648 2759 
Q 2391 3103 1925 3103 
Q 1463 3103 1205 2759 
Q 947 2416 947 1791 
Q 947 1169 1205 825 
Q 1463 481 1925 481 
Q 2391 481 2648 825 
Q 2906 1169 2906 1791 
z
M 3481 434 
Q 3481 -459 3084 -895 
Q 2688 -1331 1869 -1331 
Q 1566 -1331 1297 -1286 
Q 1028 -1241 775 -1147 
L 775 -588 
Q 1028 -725 1275 -790 
Q 1522 -856 1778 -856 
Q 2344 -856 2625 -561 
Q 2906 -266 2906 331 
L 2906 616 
Q 2728 306 2450 153 
Q 2172 0 1784 0 
Q 1141 0 747 490 
Q 353 981 353 1791 
Q 353 2603 747 3093 
Q 1141 3584 1784 3584 
Q 2172 3584 2450 3431 
Q 2728 3278 2906 2969 
L 2906 3500 
L 3481 3500 
L 3481 434 
z
" transform="scale(0.015625)"/>
       </defs>
       <use xlink:href="#DejaVuSans-73"/>
       <use xlink:href="#DejaVuSans-74" x="52.099609"/>
       <use xlink:href="#DejaVuSans-6f" x="91.308594"/>
       <use xlink:href="#DejaVuSans-72" x="152.490234"/>
       <use xlink:href="#DejaVuSans-6d" x="191.853516"/>
       <use xlink:href="#DejaVuSans-69" x="289.265625"/>
       <use xlink:href="#DejaVuSans-6e" x="317.048828"/>
       <use xlink:href="#DejaVuSans-67" x="380.427734"/>
      </g>
     </g>
    </g>
    <g id="ytick_7">
     <g id="line2d_13">
      <g>
       <use xlink:href="#m25bdc835fb" x="72.56" y="146.338333" style="stroke: #000000; stroke-width: 0.8"/>
      </g>
     </g>
     <g id="text_14">
      <!-- Summari- -->
      <g transform="translate(31.405469 145.610443) scale(0.07 -0.07)">
       <defs>
        <path id="DejaVuSans-53" d="M 3425 4513 
L 3425 3897 
Q 3066 4069 2747 4153 
Q 2428 4238 2131 4238 
Q 1616 4238 1336 4038 
Q 1056 3838 1056 3469 
Q 1056 3159 1242 3001 
Q 1428 2844 1947 2747 
L 2328 2669 
Q 3034 2534 3370 2195 
Q 3706 1856 3706 1288 
Q 3706 609 3251 259 
Q 2797 -91 1919 -91 
Q 1588 -91 1214 -16 
Q 841 59 441 206 
L 441 856 
Q 825 641 1194 531 
Q 1563 422 1919 422 
Q 2459 422 2753 634 
Q 3047 847 3047 1241 
Q 3047 1584 2836 1778 
Q 2625 1972 2144 2069 
L 1759 2144 
Q 1053 2284 737 2584 
Q 422 2884 422 3419 
Q 422 4038 858 4394 
Q 1294 4750 2059 4750 
Q 2388 4750 2728 4690 
Q 3069 4631 3425 4513 
z
" transform="scale(0.015625)"/>
        <path id="DejaVuSans-75" d="M 544 1381 
L 544 3500 
L 1119 3500 
L 1119 1403 
Q 1119 906 1312 657 
Q 1506 409 1894 409 
Q 2359 409 2629 706 
Q 2900 1003 2900 1516 
L 2900 3500 
L 3475 3500 
L 3475 0 
L 2900 0 
L 2900 538 
Q 2691 219 2414 64 
Q 2138 -91 1772 -91 
Q 1169 -91 856 284 
Q 544 659 544 1381 
z
M 1991 3584 
L 1991 3584 
z
" transform="scale(0.015625)"/>
       </defs>
       <use xlink:href="#DejaVuSans-53"/>
       <use xlink:href="#DejaVuSans-75" x="63.476562"/>
       <use xlink:href="#DejaVuSans-6d" x="126.855469"/>
       <use xlink:href="#DejaVuSans-6d" x="224.267578"/>
       <use xlink:href="#DejaVuSans-61" x="321.679688"/>
       <use xlink:href="#DejaVuSans-72" x="382.958984"/>
       <use xlink:href="#DejaVuSans-69" x="424.072266"/>
       <use xlink:href="#DejaVuSans-2d" x="451.855469"/>
      </g>
      <!-- zation -->
      <g transform="translate(44.188125 153.448911) scale(0.07 -0.07)">
       <defs>
        <path id="DejaVuSans-7a" d="M 353 3500 
L 3084 3500 
L 3084 2975 
L 922 459 
L 3084 459 
L 3084 0 
L 275 0 
L 275 525 
L 2438 3041 
L 353 3041 
L 353 3500 
z
" transform="scale(0.015625)"/>
       </defs>
       <use xlink:href="#DejaVuSans-7a"/>
       <use xlink:href="#DejaVuSans-61" x="52.490234"/>
       <use xlink:href="#DejaVuSans-74" x="113.769531"/>
       <use xlink:href="#DejaVuSans-69" x="152.978516"/>
       <use xlink:href="#DejaVuSans-6f" x="180.761719"/>
       <use xlink:href="#DejaVuSans-6e" x="241.943359"/>
      </g>
     </g>
    </g>
    <g id="ytick_8">
     <g id="line2d_14">
      <g>
       <use xlink:href="#m25bdc835fb" x="72.56" y="121.695" style="stroke: #000000; stroke-width: 0.8"/>
      </g>
     </g>
     <g id="text_15">
      <!-- Creative -->
      <g transform="translate(36.215781 120.967109) scale(0.07 -0.07)">
       <defs>
        <path id="DejaVuSans-76" d="M 191 3500 
L 800 3500 
L 1894 563 
L 2988 3500 
L 3597 3500 
L 2284 0 
L 1503 0 
L 191 3500 
z
" transform="scale(0.015625)"/>
       </defs>
       <use xlink:href="#DejaVuSans-43"/>
       <use xlink:href="#DejaVuSans-72" x="69.824219"/>
       <use xlink:href="#DejaVuSans-65" x="108.6875"/>
       <use xlink:href="#DejaVuSans-61" x="170.210938"/>
       <use xlink:href="#DejaVuSans-74" x="231.490234"/>
       <use xlink:href="#DejaVuSans-69" x="270.699219"/>
       <use xlink:href="#DejaVuSans-76" x="298.482422"/>
       <use xlink:href="#DejaVuSans-65" x="357.662109"/>
      </g>
      <!-- Writing -->
      <g transform="translate(40.562344 128.805578) scale(0.07 -0.07)">
       <defs>
        <path id="DejaVuSans-57" d="M 213 4666 
L 850 4666 
L 1831 722 
L 2809 4666 
L 3519 4666 
L 4500 722 
L 5478 4666 
L 6119 4666 
L 4947 0 
L 4153 0 
L 3169 4050 
L 2175 0 
L 1381 0 
L 213 4666 
z
" transform="scale(0.015625)"/>
       </defs>
       <use xlink:href="#DejaVuSans-57"/>
       <use xlink:href="#DejaVuSans-72" x="94.376953"/>
       <use xlink:href="#DejaVuSans-69" x="135.490234"/>
       <use xlink:href="#DejaVuSans-74" x="163.273438"/>
       <use xlink:href="#DejaVuSans-69" x="202.482422"/>
       <use xlink:href="#DejaVuSans-6e" x="230.265625"/>
       <use xlink:href="#DejaVuSans-67" x="293.644531"/>
      </g>
     </g>
    </g>
    <g id="ytick_9">
     <g id="line2d_15">
      <g>
       <use xlink:href="#m25bdc835fb" x="72.56" y="97.051667" style="stroke: #000000; stroke-width: 0.8"/>
      </g>
     </g>
     <g id="text_16">
      <!-- CIFAR10 -->
      <g transform="translate(36.659844 99.71112) scale(0.07 -0.07)">
       <defs>
        <path id="DejaVuSans-46" d="M 628 4666 
L 3309 4666 
L 3309 4134 
L 1259 4134 
L 1259 2759 
L 3109 2759 
L 3109 2228 
L 1259 2228 
L 1259 0 
L 628 0 
L 628 4666 
z
" transform="scale(0.015625)"/>
        <path id="DejaVuSans-52" d="M 2841 2188 
Q 3044 2119 3236 1894 
Q 3428 1669 3622 1275 
L 4263 0 
L 3584 0 
L 2988 1197 
Q 2756 1666 2539 1819 
Q 2322 1972 1947 1972 
L 1259 1972 
L 1259 0 
L 628 0 
L 628 4666 
L 2053 4666 
Q 2853 4666 3247 4331 
Q 3641 3997 3641 3322 
Q 3641 2881 3436 2590 
Q 3231 2300 2841 2188 
z
M 1259 4147 
L 1259 2491 
L 2053 2491 
Q 2509 2491 2742 2702 
Q 2975 2913 2975 3322 
Q 2975 3731 2742 3939 
Q 2509 4147 2053 4147 
L 1259 4147 
z
" transform="scale(0.015625)"/>
       </defs>
       <use xlink:href="#DejaVuSans-43"/>
       <use xlink:href="#DejaVuSans-49" x="69.824219"/>
       <use xlink:href="#DejaVuSans-46" x="99.316406"/>
       <use xlink:href="#DejaVuSans-41" x="147.710938"/>
       <use xlink:href="#DejaVuSans-52" x="216.119141"/>
       <use xlink:href="#DejaVuSans-31" x="285.601562"/>
       <use xlink:href="#DejaVuSans-30" x="349.224609"/>
      </g>
     </g>
    </g>
    <g id="ytick_10">
     <g id="line2d_16">
      <g>
       <use xlink:href="#m25bdc835fb" x="72.56" y="72.408333" style="stroke: #000000; stroke-width: 0.8"/>
      </g>
     </g>
     <g id="text_17">
      <!-- CIFAR100 -->
      <g transform="translate(32.206094 75.067786) scale(0.07 -0.07)">
       <use xlink:href="#DejaVuSans-43"/>
       <use xlink:href="#DejaVuSans-49" x="69.824219"/>
       <use xlink:href="#DejaVuSans-46" x="99.316406"/>
       <use xlink:href="#DejaVuSans-41" x="147.710938"/>
       <use xlink:href="#DejaVuSans-52" x="216.119141"/>
       <use xlink:href="#DejaVuSans-31" x="285.601562"/>
       <use xlink:href="#DejaVuSans-30" x="349.224609"/>
       <use xlink:href="#DejaVuSans-30" x="412.847656"/>
      </g>
     </g>
    </g>
    <g id="ytick_11">
     <g id="line2d_17">
      <g>
       <use xlink:href="#m25bdc835fb" x="72.56" y="47.765" style="stroke: #000000; stroke-width: 0.8"/>
      </g>
     </g>
     <g id="text_18">
      <!-- QQP -->
      <g transform="translate(50.318594 50.424453) scale(0.07 -0.07)">
       <use xlink:href="#DejaVuSans-51"/>
       <use xlink:href="#DejaVuSans-51" x="78.710938"/>
       <use xlink:href="#DejaVuSans-50" x="157.421875"/>
      </g>
     </g>
    </g>
    <g id="ytick_12">
     <g id="line2d_18">
      <g>
       <use xlink:href="#m25bdc835fb" x="72.56" y="23.121667" style="stroke: #000000; stroke-width: 0.8"/>
      </g>
     </g>
     <g id="text_19">
      <!-- QNLI -->
      <g transform="translate(48.8475 25.78112) scale(0.07 -0.07)">
       <defs>
        <path id="DejaVuSans-4e" d="M 628 4666 
L 1478 4666 
L 3547 763 
L 3547 4666 
L 4159 4666 
L 4159 0 
L 3309 0 
L 1241 3903 
L 1241 0 
L 628 0 
L 628 4666 
z
" transform="scale(0.015625)"/>
        <path id="DejaVuSans-4c" d="M 628 4666 
L 1259 4666 
L 1259 531 
L 3531 531 
L 3531 0 
L 628 0 
L 628 4666 
z
" transform="scale(0.015625)"/>
       </defs>
       <use xlink:href="#DejaVuSans-51"/>
       <use xlink:href="#DejaVuSans-4e" x="78.710938"/>
       <use xlink:href="#DejaVuSans-4c" x="153.515625"/>
       <use xlink:href="#DejaVuSans-49" x="209.228516"/>
      </g>
     </g>
    </g>
    <g id="text_20">
     <!-- Tasks -->
     <g transform="translate(18.960156 172.057656) rotate(-90) scale(0.1 -0.1)">
      <defs>
       <path id="DejaVuSans-54" d="M -19 4666 
L 3928 4666 
L 3928 4134 
L 2272 4134 
L 2272 0 
L 1638 0 
L 1638 4134 
L -19 4134 
L -19 4666 
z
" transform="scale(0.015625)"/>
       <path id="DejaVuSans-6b" d="M 581 4863 
L 1159 4863 
L 1159 1991 
L 2875 3500 
L 3609 3500 
L 1753 1863 
L 3688 0 
L 2938 0 
L 1159 1709 
L 1159 0 
L 581 0 
L 581 4863 
z
" transform="scale(0.015625)"/>
      </defs>
      <use xlink:href="#DejaVuSans-54"/>
      <use xlink:href="#DejaVuSans-61" x="44.583984"/>
      <use xlink:href="#DejaVuSans-73" x="105.863281"/>
      <use xlink:href="#DejaVuSans-6b" x="157.962891"/>
      <use xlink:href="#DejaVuSans-73" x="215.873047"/>
     </g>
    </g>
   </g>
   <g id="patch_123">
    <path d="M 72.56 306.52 
L 72.56 10.8 
" style="fill: none; stroke: #000000; stroke-width: 0.8; stroke-linejoin: miter; stroke-linecap: square"/>
   </g>
   <g id="patch_124">
    <path d="M 337.864 306.52 
L 337.864 10.8 
" style="fill: none; stroke: #000000; stroke-width: 0.8; stroke-linejoin: miter; stroke-linecap: square"/>
   </g>
   <g id="patch_125">
    <path d="M 72.56 306.52 
L 337.864 306.52 
" style="fill: none; stroke: #000000; stroke-width: 0.8; stroke-linejoin: miter; stroke-linecap: square"/>
   </g>
   <g id="patch_126">
    <path d="M 72.56 10.8 
L 337.864 10.8 
" style="fill: none; stroke: #000000; stroke-width: 0.8; stroke-linejoin: miter; stroke-linecap: square"/>
   </g>
   <g id="legend_1">
    <g id="patch_127">
     <path d="M 358.1292 180.259375 
L 443.362012 180.259375 
Q 445.362012 180.259375 445.362012 178.259375 
L 445.362012 17.8 
Q 445.362012 15.8 443.362012 15.8 
L 358.1292 15.8 
Q 356.1292 15.8 356.1292 17.8 
L 356.1292 178.259375 
Q 356.1292 180.259375 358.1292 180.259375 
z
" style="fill: #ffffff; opacity: 0.8; stroke: #cccccc; stroke-linejoin: miter"/>
    </g>
    <g id="text_21">
     <!-- Clients -->
     <g transform="translate(383.665919 27.398438) scale(0.1 -0.1)">
      <use xlink:href="#DejaVuSans-43"/>
      <use xlink:href="#DejaVuSans-6c" x="69.824219"/>
      <use xlink:href="#DejaVuSans-69" x="97.607422"/>
      <use xlink:href="#DejaVuSans-65" x="125.390625"/>
      <use xlink:href="#DejaVuSans-6e" x="186.914062"/>
      <use xlink:href="#DejaVuSans-74" x="250.292969"/>
      <use xlink:href="#DejaVuSans-73" x="289.501953"/>
     </g>
    </g>
    <g id="patch_128">
     <path d="M 360.1292 42.076562 
L 380.1292 42.076562 
L 380.1292 35.076562 
L 360.1292 35.076562 
z
" style="fill: #440154"/>
    </g>
    <g id="text_22">
     <!-- Client #1 -->
     <g transform="translate(388.1292 42.076562) scale(0.1 -0.1)">
      <defs>
       <path id="DejaVuSans-23" d="M 3272 2816 
L 2363 2816 
L 2100 1772 
L 3016 1772 
L 3272 2816 
z
M 2803 4594 
L 2478 3297 
L 3391 3297 
L 3719 4594 
L 4219 4594 
L 3897 3297 
L 4872 3297 
L 4872 2816 
L 3775 2816 
L 3519 1772 
L 4513 1772 
L 4513 1294 
L 3397 1294 
L 3072 0 
L 2572 0 
L 2894 1294 
L 1978 1294 
L 1656 0 
L 1153 0 
L 1478 1294 
L 494 1294 
L 494 1772 
L 1594 1772 
L 1856 2816 
L 850 2816 
L 850 3297 
L 1978 3297 
L 2297 4594 
L 2803 4594 
z
" transform="scale(0.015625)"/>
      </defs>
      <use xlink:href="#DejaVuSans-43"/>
      <use xlink:href="#DejaVuSans-6c" x="69.824219"/>
      <use xlink:href="#DejaVuSans-69" x="97.607422"/>
      <use xlink:href="#DejaVuSans-65" x="125.390625"/>
      <use xlink:href="#DejaVuSans-6e" x="186.914062"/>
      <use xlink:href="#DejaVuSans-74" x="250.292969"/>
      <use xlink:href="#DejaVuSans-20" x="289.501953"/>
      <use xlink:href="#DejaVuSans-23" x="321.289062"/>
      <use xlink:href="#DejaVuSans-31" x="405.078125"/>
     </g>
    </g>
    <g id="patch_129">
     <path d="M 360.1292 56.754687 
L 380.1292 56.754687 
L 380.1292 49.754687 
L 360.1292 49.754687 
z
" style="fill: #482878"/>
    </g>
    <g id="text_23">
     <!-- Client #2 -->
     <g transform="translate(388.1292 56.754687) scale(0.1 -0.1)">
      <use xlink:href="#DejaVuSans-43"/>
      <use xlink:href="#DejaVuSans-6c" x="69.824219"/>
      <use xlink:href="#DejaVuSans-69" x="97.607422"/>
      <use xlink:href="#DejaVuSans-65" x="125.390625"/>
      <use xlink:href="#DejaVuSans-6e" x="186.914062"/>
      <use xlink:href="#DejaVuSans-74" x="250.292969"/>
      <use xlink:href="#DejaVuSans-20" x="289.501953"/>
      <use xlink:href="#DejaVuSans-23" x="321.289062"/>
      <use xlink:href="#DejaVuSans-32" x="405.078125"/>
     </g>
    </g>
    <g id="patch_130">
     <path d="M 360.1292 71.432813 
L 380.1292 71.432813 
L 380.1292 64.432813 
L 360.1292 64.432813 
z
" style="fill: #3e4989"/>
    </g>
    <g id="text_24">
     <!-- Client #3 -->
     <g transform="translate(388.1292 71.432813) scale(0.1 -0.1)">
      <defs>
       <path id="DejaVuSans-33" d="M 2597 2516 
Q 3050 2419 3304 2112 
Q 3559 1806 3559 1356 
Q 3559 666 3084 287 
Q 2609 -91 1734 -91 
Q 1441 -91 1130 -33 
Q 819 25 488 141 
L 488 750 
Q 750 597 1062 519 
Q 1375 441 1716 441 
Q 2309 441 2620 675 
Q 2931 909 2931 1356 
Q 2931 1769 2642 2001 
Q 2353 2234 1838 2234 
L 1294 2234 
L 1294 2753 
L 1863 2753 
Q 2328 2753 2575 2939 
Q 2822 3125 2822 3475 
Q 2822 3834 2567 4026 
Q 2313 4219 1838 4219 
Q 1578 4219 1281 4162 
Q 984 4106 628 3988 
L 628 4550 
Q 988 4650 1302 4700 
Q 1616 4750 1894 4750 
Q 2613 4750 3031 4423 
Q 3450 4097 3450 3541 
Q 3450 3153 3228 2886 
Q 3006 2619 2597 2516 
z
" transform="scale(0.015625)"/>
      </defs>
      <use xlink:href="#DejaVuSans-43"/>
      <use xlink:href="#DejaVuSans-6c" x="69.824219"/>
      <use xlink:href="#DejaVuSans-69" x="97.607422"/>
      <use xlink:href="#DejaVuSans-65" x="125.390625"/>
      <use xlink:href="#DejaVuSans-6e" x="186.914062"/>
      <use xlink:href="#DejaVuSans-74" x="250.292969"/>
      <use xlink:href="#DejaVuSans-20" x="289.501953"/>
      <use xlink:href="#DejaVuSans-23" x="321.289062"/>
      <use xlink:href="#DejaVuSans-33" x="405.078125"/>
     </g>
    </g>
    <g id="patch_131">
     <path d="M 360.1292 86.110937 
L 380.1292 86.110937 
L 380.1292 79.110937 
L 360.1292 79.110937 
z
" style="fill: #31688e"/>
    </g>
    <g id="text_25">
     <!-- Client #4 -->
     <g transform="translate(388.1292 86.110937) scale(0.1 -0.1)">
      <use xlink:href="#DejaVuSans-43"/>
      <use xlink:href="#DejaVuSans-6c" x="69.824219"/>
      <use xlink:href="#DejaVuSans-69" x="97.607422"/>
      <use xlink:href="#DejaVuSans-65" x="125.390625"/>
      <use xlink:href="#DejaVuSans-6e" x="186.914062"/>
      <use xlink:href="#DejaVuSans-74" x="250.292969"/>
      <use xlink:href="#DejaVuSans-20" x="289.501953"/>
      <use xlink:href="#DejaVuSans-23" x="321.289062"/>
      <use xlink:href="#DejaVuSans-34" x="405.078125"/>
     </g>
    </g>
    <g id="patch_132">
     <path d="M 360.1292 100.789062 
L 380.1292 100.789062 
L 380.1292 93.789062 
L 360.1292 93.789062 
z
" style="fill: #26828e"/>
    </g>
    <g id="text_26">
     <!-- Client #5 -->
     <g transform="translate(388.1292 100.789062) scale(0.1 -0.1)">
      <defs>
       <path id="DejaVuSans-35" d="M 691 4666 
L 3169 4666 
L 3169 4134 
L 1269 4134 
L 1269 2991 
Q 1406 3038 1543 3061 
Q 1681 3084 1819 3084 
Q 2600 3084 3056 2656 
Q 3513 2228 3513 1497 
Q 3513 744 3044 326 
Q 2575 -91 1722 -91 
Q 1428 -91 1123 -41 
Q 819 9 494 109 
L 494 744 
Q 775 591 1075 516 
Q 1375 441 1709 441 
Q 2250 441 2565 725 
Q 2881 1009 2881 1497 
Q 2881 1984 2565 2268 
Q 2250 2553 1709 2553 
Q 1456 2553 1204 2497 
Q 953 2441 691 2322 
L 691 4666 
z
" transform="scale(0.015625)"/>
      </defs>
      <use xlink:href="#DejaVuSans-43"/>
      <use xlink:href="#DejaVuSans-6c" x="69.824219"/>
      <use xlink:href="#DejaVuSans-69" x="97.607422"/>
      <use xlink:href="#DejaVuSans-65" x="125.390625"/>
      <use xlink:href="#DejaVuSans-6e" x="186.914062"/>
      <use xlink:href="#DejaVuSans-74" x="250.292969"/>
      <use xlink:href="#DejaVuSans-20" x="289.501953"/>
      <use xlink:href="#DejaVuSans-23" x="321.289062"/>
      <use xlink:href="#DejaVuSans-35" x="405.078125"/>
     </g>
    </g>
    <g id="patch_133">
     <path d="M 360.1292 115.467187 
L 380.1292 115.467187 
L 380.1292 108.467187 
L 360.1292 108.467187 
z
" style="fill: #1f9e89"/>
    </g>
    <g id="text_27">
     <!-- Client #6 -->
     <g transform="translate(388.1292 115.467187) scale(0.1 -0.1)">
      <use xlink:href="#DejaVuSans-43"/>
      <use xlink:href="#DejaVuSans-6c" x="69.824219"/>
      <use xlink:href="#DejaVuSans-69" x="97.607422"/>
      <use xlink:href="#DejaVuSans-65" x="125.390625"/>
      <use xlink:href="#DejaVuSans-6e" x="186.914062"/>
      <use xlink:href="#DejaVuSans-74" x="250.292969"/>
      <use xlink:href="#DejaVuSans-20" x="289.501953"/>
      <use xlink:href="#DejaVuSans-23" x="321.289062"/>
      <use xlink:href="#DejaVuSans-36" x="405.078125"/>
     </g>
    </g>
    <g id="patch_134">
     <path d="M 360.1292 130.145312 
L 380.1292 130.145312 
L 380.1292 123.145312 
L 360.1292 123.145312 
z
" style="fill: #35b779"/>
    </g>
    <g id="text_28">
     <!-- Client #7 -->
     <g transform="translate(388.1292 130.145312) scale(0.1 -0.1)">
      <defs>
       <path id="DejaVuSans-37" d="M 525 4666 
L 3525 4666 
L 3525 4397 
L 1831 0 
L 1172 0 
L 2766 4134 
L 525 4134 
L 525 4666 
z
" transform="scale(0.015625)"/>
      </defs>
      <use xlink:href="#DejaVuSans-43"/>
      <use xlink:href="#DejaVuSans-6c" x="69.824219"/>
      <use xlink:href="#DejaVuSans-69" x="97.607422"/>
      <use xlink:href="#DejaVuSans-65" x="125.390625"/>
      <use xlink:href="#DejaVuSans-6e" x="186.914062"/>
      <use xlink:href="#DejaVuSans-74" x="250.292969"/>
      <use xlink:href="#DejaVuSans-20" x="289.501953"/>
      <use xlink:href="#DejaVuSans-23" x="321.289062"/>
      <use xlink:href="#DejaVuSans-37" x="405.078125"/>
     </g>
    </g>
    <g id="patch_135">
     <path d="M 360.1292 144.823437 
L 380.1292 144.823437 
L 380.1292 137.823437 
L 360.1292 137.823437 
z
" style="fill: #6ece58"/>
    </g>
    <g id="text_29">
     <!-- Client #8 -->
     <g transform="translate(388.1292 144.823437) scale(0.1 -0.1)">
      <use xlink:href="#DejaVuSans-43"/>
      <use xlink:href="#DejaVuSans-6c" x="69.824219"/>
      <use xlink:href="#DejaVuSans-69" x="97.607422"/>
      <use xlink:href="#DejaVuSans-65" x="125.390625"/>
      <use xlink:href="#DejaVuSans-6e" x="186.914062"/>
      <use xlink:href="#DejaVuSans-74" x="250.292969"/>
      <use xlink:href="#DejaVuSans-20" x="289.501953"/>
      <use xlink:href="#DejaVuSans-23" x="321.289062"/>
      <use xlink:href="#DejaVuSans-38" x="405.078125"/>
     </g>
    </g>
    <g id="patch_136">
     <path d="M 360.1292 159.501562 
L 380.1292 159.501562 
L 380.1292 152.501562 
L 360.1292 152.501562 
z
" style="fill: #b5de2b"/>
    </g>
    <g id="text_30">
     <!-- Client #9 -->
     <g transform="translate(388.1292 159.501562) scale(0.1 -0.1)">
      <defs>
       <path id="DejaVuSans-39" d="M 703 97 
L 703 672 
Q 941 559 1184 500 
Q 1428 441 1663 441 
Q 2288 441 2617 861 
Q 2947 1281 2994 2138 
Q 2813 1869 2534 1725 
Q 2256 1581 1919 1581 
Q 1219 1581 811 2004 
Q 403 2428 403 3163 
Q 403 3881 828 4315 
Q 1253 4750 1959 4750 
Q 2769 4750 3195 4129 
Q 3622 3509 3622 2328 
Q 3622 1225 3098 567 
Q 2575 -91 1691 -91 
Q 1453 -91 1209 -44 
Q 966 3 703 97 
z
M 1959 2075 
Q 2384 2075 2632 2365 
Q 2881 2656 2881 3163 
Q 2881 3666 2632 3958 
Q 2384 4250 1959 4250 
Q 1534 4250 1286 3958 
Q 1038 3666 1038 3163 
Q 1038 2656 1286 2365 
Q 1534 2075 1959 2075 
z
" transform="scale(0.015625)"/>
      </defs>
      <use xlink:href="#DejaVuSans-43"/>
      <use xlink:href="#DejaVuSans-6c" x="69.824219"/>
      <use xlink:href="#DejaVuSans-69" x="97.607422"/>
      <use xlink:href="#DejaVuSans-65" x="125.390625"/>
      <use xlink:href="#DejaVuSans-6e" x="186.914062"/>
      <use xlink:href="#DejaVuSans-74" x="250.292969"/>
      <use xlink:href="#DejaVuSans-20" x="289.501953"/>
      <use xlink:href="#DejaVuSans-23" x="321.289062"/>
      <use xlink:href="#DejaVuSans-39" x="405.078125"/>
     </g>
    </g>
    <g id="patch_137">
     <path d="M 360.1292 174.179687 
L 380.1292 174.179687 
L 380.1292 167.179687 
L 360.1292 167.179687 
z
" style="fill: #fde725"/>
    </g>
    <g id="text_31">
     <!-- Client #10 -->
     <g transform="translate(388.1292 174.179687) scale(0.1 -0.1)">
      <use xlink:href="#DejaVuSans-43"/>
      <use xlink:href="#DejaVuSans-6c" x="69.824219"/>
      <use xlink:href="#DejaVuSans-69" x="97.607422"/>
      <use xlink:href="#DejaVuSans-65" x="125.390625"/>
      <use xlink:href="#DejaVuSans-6e" x="186.914062"/>
      <use xlink:href="#DejaVuSans-74" x="250.292969"/>
      <use xlink:href="#DejaVuSans-20" x="289.501953"/>
      <use xlink:href="#DejaVuSans-23" x="321.289062"/>
      <use xlink:href="#DejaVuSans-31" x="405.078125"/>
      <use xlink:href="#DejaVuSans-30" x="468.701172"/>
     </g>
    </g>
   </g>
  </g>
 </g>
 <defs>
  <clipPath id="pfb188b5750">
   <rect x="72.56" y="10.8" width="265.304" height="295.72"/>
  </clipPath>
 </defs>
</svg>
